<?xml version="1.0" encoding="UTF-8" standalone="no"?>
<svg width="19px" height="17px" viewBox="0 0 19 17" version="1.1" xmlns="http://www.w3.org/2000/svg" xmlns:xlink="http://www.w3.org/1999/xlink" xmlns:sketch="http://www.bohemiancoding.com/sketch/ns">
    <!-- Generator: Sketch Beta 3.2.1 (9971) - http://www.bohemiancoding.com/sketch -->
    <title>Shape</title>
    <desc>Created with Sketch Beta.</desc>
    <defs></defs>
    <g id="Page-1" stroke="none" stroke-width="1" fill="none" fill-rule="evenodd" sketch:type="MSPage">
        <path d="M0,14.791 C0.315333333,14.8336667 0.623333333,14.855 0.924,14.855 C2.70733333,14.855 4.30433333,14.282 5.715,13.136 C4.877,13.1286667 4.12866667,12.8653333 3.47,12.346 C2.81133333,11.8266667 2.36,11.166 2.116,10.364 C2.40266667,10.414 2.64266667,10.439 2.836,10.439 C3.17266667,10.439 3.50933333,10.3923333 3.846,10.299 C2.958,10.113 2.224,9.65466667 1.644,8.924 C1.064,8.19333333 0.774,7.34833333 0.774,6.389 L0.774,6.325 C1.28266667,6.64033333 1.859,6.80866667 2.503,6.83 C1.98033333,6.45733333 1.565,5.97933333 1.257,5.396 C0.949,4.81266667 0.795,4.18066667 0.795,3.5 C0.795,2.76933333 0.970333333,2.10333333 1.321,1.502 C2.28766667,2.72666667 3.45866667,3.70766667 4.834,4.445 C6.20933333,5.18233333 7.68466667,5.587 9.26,5.659 C9.20266667,5.401 9.174,5.10033333 9.174,4.757 C9.174,3.65433333 9.54833333,2.71066667 10.297,1.926 C11.0456667,1.14133333 11.9533333,0.749333333 13.02,0.75 C13.564,0.75 14.0813333,0.862666667 14.572,1.088 C15.0626667,1.31333333 15.487,1.62666667 15.845,2.028 C16.683,1.842 17.4956667,1.51966667 18.283,1.061 C18.1396667,1.52633333 17.9193333,1.949 17.622,2.329 C17.3246667,2.709 16.979,3.02066667 16.585,3.264 C17.3443333,3.18533333 18.0856667,2.974 18.809,2.63 C18.279,3.45333333 17.6343333,4.141 16.875,4.693 C16.889,4.80766667 16.896,4.983 16.896,5.219 C16.896,6.28633333 16.7456667,7.357 16.445,8.431 C16.1443333,9.505 15.6843333,10.531 15.065,11.509 C14.4456667,12.487 13.708,13.3536667 12.852,14.109 C11.996,14.8643333 10.9683333,15.4676667 9.769,15.919 C8.56966667,16.3703333 7.286,16.596 5.918,16.596 C3.79133333,16.596 1.81833333,15.9943333 -0.001,14.791 L0,14.791 Z" id="Shape" fill="#969696" sketch:type="MSShapeGroup"></path>
    </g>
</svg>